<?xml version="1.0" encoding="utf-8"?>

<!DOCTYPE svg PUBLIC "-//W3C//DTD SVG 1.1//EN" "http://www.w3.org/Graphics/SVG/1.1/DTD/svg11.dtd">
<!-- Uploaded to: SVG Repo, www.svgrepo.com, Generator: SVG Repo Mixer Tools -->
<svg version="1.1" id="Layer_1" xmlns:sketch="http://www.bohemiancoding.com/sketch/ns"
	 xmlns="http://www.w3.org/2000/svg" xmlns:xlink="http://www.w3.org/1999/xlink"  width="800px" height="800px"
	 viewBox="0 0 56 65" enable-background="new 0 0 56 65" xml:space="preserve">
<title>Boat</title>
<desc>Created with Sketch.</desc>
<g id="Page-1" sketch:type="MSPage">
	<g id="Boat" transform="translate(2.000000, 2.000000)" sketch:type="MSLayerGroup">
		<path id="Shape" sketch:type="MSShapeGroup" fill="none" stroke="#6B6C6E" stroke-width="2" d="M40,62H5.8c-1.3,0-5.9-7.1-5.9-8
			s1-1.4,1-1.4l50-9.4c1.3,0,2,0.9,2,2.4C53,47,48.3,62,40,62L40,62z"/>
		<path id="Shape_2_" sketch:type="MSShapeGroup" fill="none" stroke="#6B6C6E" stroke-width="2" d="M23,42.2L4.7,47.1
			c0,0,15.3-13,10.6-43.6"/>
		<path id="Shape_1_" sketch:type="MSShapeGroup" fill="none" stroke="#6B6C6E" stroke-width="2" d="M22.4,42.4L46,36.5
			c0,0-4.7-29.4-33-36.5C13,0,28.3,17.7,22.4,42.4L22.4,42.4z"/>
	</g>
</g>
</svg>